<svg width="34" height="34" viewBox="0 0 34 34" fill="none" xmlns="http://www.w3.org/2000/svg">
<path d="M29.3339 4.16657H29.3317L33.0298 4.90576C33.2284 4.94548 33.3917 5.09111 33.4491 5.28749C33.478 5.38288 33.4806 5.48435 33.4565 5.58109C33.4324 5.67784 33.3826 5.76624 33.3123 5.83691L30.2827 8.86868C29.9202 9.23048 29.429 9.43364 28.9169 9.43355H26.4058L20.0952 15.7464C20.2156 16.201 20.2377 16.676 20.1601 17.1399C20.0825 17.6037 19.907 18.0456 19.6452 18.4363C19.3834 18.827 19.0414 19.1573 18.6419 19.4055C18.2424 19.6536 17.7946 19.8137 17.3284 19.8752C16.8622 19.9366 16.3882 19.8981 15.938 19.762C15.4879 19.6259 15.0719 19.3955 14.7178 19.0861C14.3637 18.7766 14.0796 18.3953 13.8844 17.9674C13.6892 17.5395 13.5875 17.075 13.5859 16.6048C13.5863 16.097 13.7033 15.5961 13.9281 15.1409C14.1528 14.6856 14.4793 14.2881 14.8821 13.979C15.285 13.67 15.7535 13.4577 16.2515 13.3586C16.7495 13.2595 17.2636 13.2763 17.7541 13.4075L24.0669 7.09243V4.58361C24.0669 4.07169 24.2699 3.57964 24.6318 3.21777L27.6636 0.186006C27.7342 0.115681 27.8226 0.0658237 27.9194 0.0417347C28.0161 0.0176458 28.1176 0.020226 28.213 0.049201C28.4094 0.106571 28.555 0.269853 28.5947 0.468441L29.3339 4.16657Z" fill="url(#paint0_linear_67_172)"/>
<path d="M3.66204 16.6044C3.6643 18.4975 4.07255 20.3681 4.85923 22.09C5.6459 23.8119 6.79272 25.3451 8.22232 26.5861C9.65192 27.8271 11.331 28.7471 13.1464 29.284C14.9618 29.821 16.8712 29.9623 18.7459 29.6985C20.6205 29.4347 22.4168 28.772 24.0135 27.755C25.6102 26.7379 26.9703 25.3903 28.0019 23.803C29.0335 22.2156 29.7127 20.4255 29.9937 18.5534C30.2747 16.6812 30.1509 14.7706 29.6306 12.9504C29.5576 12.7377 29.5286 12.5124 29.5454 12.2882C29.5622 12.064 29.6245 11.8455 29.7284 11.6461C29.8323 11.4467 29.9758 11.2706 30.15 11.1284C30.3241 10.9862 30.5254 10.8809 30.7416 10.819C30.9578 10.7571 31.1843 10.7398 31.4073 10.7683C31.6304 10.7967 31.8453 10.8702 32.039 10.9843C32.2327 11.0985 32.4012 11.2508 32.5342 11.4322C32.6671 11.6135 32.7618 11.82 32.8124 12.0391C33.8198 15.564 33.6284 19.3237 32.2684 22.7282C30.9084 26.1327 28.4567 28.9894 25.2979 30.8501C22.1391 32.7109 18.452 33.4704 14.815 33.0094C11.178 32.5485 7.79693 30.8932 5.20219 28.3034C2.61028 25.7093 0.953253 22.3278 0.49127 18.69C0.0292864 15.0522 0.788508 11.3639 2.64973 8.20428C4.51096 5.04467 7.36879 2.59262 10.7745 1.23314C14.1803 -0.126352 17.9411 -0.316302 21.4665 0.69311C21.8863 0.815819 22.2404 1.0997 22.4515 1.48272C22.6626 1.86574 22.7135 2.31675 22.5931 2.73718C22.4727 3.15762 22.1907 3.5133 21.8089 3.72648C21.427 3.93967 20.9763 3.99304 20.5552 3.87492C18.5838 3.30931 16.5081 3.20935 14.4915 3.58292C12.4749 3.95649 10.5727 4.79337 8.93473 6.0276C7.2968 7.26183 5.96795 8.85965 5.05294 10.6951C4.13794 12.5306 3.66179 14.5535 3.66204 16.6044Z" fill="url(#paint1_linear_67_172)"/>
<path d="M10.2796 16.6046C10.2797 17.8106 10.6091 18.9938 11.2323 20.0264C11.8554 21.059 12.7487 21.9018 13.8157 22.4641C14.8827 23.0263 16.083 23.2865 17.287 23.2167C18.491 23.1469 19.6532 22.7497 20.648 22.0679C21.6427 21.3844 22.4316 20.442 22.9294 19.3426C23.4272 18.2431 23.615 17.0285 23.4724 15.8301C23.4338 15.5393 23.4735 15.2434 23.5872 14.973C23.701 14.7026 23.8848 14.4674 24.1197 14.2917C24.3546 14.1159 24.632 14.0059 24.9236 13.973C25.2151 13.9401 25.5101 13.9855 25.7782 14.1046C26.0463 14.2221 26.2784 14.4085 26.4509 14.645C26.6234 14.8814 26.7301 15.1594 26.7601 15.4506C26.9999 17.4984 26.5962 19.5702 25.605 21.3782C24.6139 23.1862 23.0845 24.6408 21.2291 25.5402C19.3737 26.4395 17.2844 26.739 15.2511 26.397C13.2178 26.055 11.3414 25.0884 9.88234 23.6316C8.42327 22.1748 7.45392 20.2998 7.10882 18.267C6.76373 16.2343 7.06 14.1445 7.95653 12.2877C8.85306 10.431 10.3054 8.89937 12.1119 7.90549C13.9184 6.91161 15.9895 6.50476 18.0377 6.74141C18.257 6.76175 18.4701 6.82568 18.6644 6.92944C18.8587 7.03319 19.0303 7.17469 19.1692 7.34563C19.3081 7.51657 19.4115 7.71353 19.4733 7.92494C19.5351 8.13635 19.554 8.35798 19.5291 8.57682C19.5041 8.79566 19.4357 9.00731 19.3279 9.19937C19.22 9.39143 19.075 9.56004 18.9011 9.6953C18.7273 9.83056 18.5282 9.92976 18.3155 9.98709C18.1029 10.0444 17.8809 10.0587 17.6626 10.0291C16.7351 9.92144 15.7953 10.0112 14.905 10.2925C14.0146 10.5738 13.1939 11.0402 12.4966 11.6612C11.7993 12.2822 11.2413 13.0437 10.8592 13.8957C10.4771 14.7477 10.2796 15.6708 10.2796 16.6046Z" fill="url(#paint2_linear_67_172)"/>
<defs>
<linearGradient id="paint0_linear_67_172" x1="14.6641" y1="3.04393" x2="33.6138" y2="13.6504" gradientUnits="userSpaceOnUse">
<stop stop-color="#E3C862"/>
<stop offset="0.206597" stop-color="#DBBB44"/>
<stop offset="0.472222" stop-color="#D4AF3A"/>
<stop offset="0.753213" stop-color="#B7912B"/>
<stop offset="1" stop-color="#A3781A"/>
</linearGradient>
<linearGradient id="paint1_linear_67_172" x1="2.15342" y1="5.07805" x2="33.6893" y2="22.7231" gradientUnits="userSpaceOnUse">
<stop stop-color="#E3C862"/>
<stop offset="0.206597" stop-color="#DBBB44"/>
<stop offset="0.472222" stop-color="#D4AF3A"/>
<stop offset="0.753213" stop-color="#B7912B"/>
<stop offset="1" stop-color="#A3781A"/>
</linearGradient>
<linearGradient id="paint2_linear_67_172" x1="8.04543" y1="9.69137" x2="26.9722" y2="20.2804" gradientUnits="userSpaceOnUse">
<stop stop-color="#E3C862"/>
<stop offset="0.206597" stop-color="#DBBB44"/>
<stop offset="0.472222" stop-color="#D4AF3A"/>
<stop offset="0.753213" stop-color="#B7912B"/>
<stop offset="1" stop-color="#A3781A"/>
</linearGradient>
</defs>
</svg>
