<svg width="42" height="42" viewBox="0 0 42 42" fill="none" xmlns="http://www.w3.org/2000/svg">
<path d="M37.7729 31.0997C38.8559 31.0997 39.8946 30.6679 40.6604 29.8993C41.4262 29.1307 41.8565 28.0882 41.8565 27.0012V4.45977C41.8565 3.3728 41.4262 2.33034 40.6604 1.56173C39.8946 0.793127 38.8559 0.361328 37.7729 0.361328H17.5182C16.9543 0.361328 16.5928 0.977039 16.7966 1.5028C17.0733 2.21649 17.2514 2.96504 17.3214 3.72646C17.3585 4.13032 17.6839 4.45977 18.0894 4.45977H37.0386C37.4441 4.45977 37.7729 4.78854 37.7729 5.1941V26.2669C37.7729 26.6725 37.4441 27.0012 37.0386 27.0012H20.1312C19.7257 27.0012 19.3969 27.33 19.3969 27.7355V31.0997M26.8297 10.6074C27.2352 10.6074 27.564 10.9362 27.564 11.3418V13.9716C27.564 14.3771 27.2352 14.7059 26.8297 14.7059H16.0477C15.6421 14.7059 15.3133 15.0347 15.3133 15.4402V40.6115C15.3133 41.017 14.9846 41.3458 14.579 41.3458H11.9641C11.5586 41.3458 11.2298 41.017 11.2298 40.6115V29.7848C11.2298 29.3792 10.901 29.0504 10.4955 29.0504H7.88055C7.47499 29.0504 7.14622 29.3792 7.14622 29.7848V40.6115C7.14622 41.017 6.81746 41.3458 6.4119 41.3458H3.79699C3.39144 41.3458 3.06267 41.017 3.06267 40.6115V25.6863C3.06267 25.2808 2.7339 24.952 2.32834 24.952H0.734324C0.328768 24.952 0 24.6232 0 24.2177V14.7059C0 13.6189 0.430231 12.5765 1.19605 11.8078C1.96186 11.0392 3.00053 10.6074 4.08356 10.6074H26.8297ZM13.2716 4.45977C13.2716 5.54675 12.8413 6.5892 12.0755 7.35781C11.3097 8.12642 10.271 8.55822 9.188 8.55822C8.10498 8.55822 7.06631 8.12642 6.30049 7.35781C5.53468 6.5892 5.10445 5.54675 5.10445 4.45977C5.10445 3.3728 5.53468 2.33034 6.30049 1.56173C7.06631 0.793127 8.10498 0.361328 9.188 0.361328C10.271 0.361328 11.3097 0.793127 12.0755 1.56173C12.8413 2.33034 13.2716 3.3728 13.2716 4.45977Z" fill="url(#paint0_linear_67_157)"/>
<defs>
<linearGradient id="paint0_linear_67_157" x1="2.26933" y1="6.58489" x2="41.7566" y2="29.147" gradientUnits="userSpaceOnUse">
<stop stop-color="#E3C862"/>
<stop offset="0.206597" stop-color="#DBBB44"/>
<stop offset="0.472222" stop-color="#D4AF3A"/>
<stop offset="0.753213" stop-color="#B7912B"/>
<stop offset="1" stop-color="#A3781A"/>
</linearGradient>
</defs>
</svg>
