<svg width="34" height="32" viewBox="0 0 34 32" fill="none" xmlns="http://www.w3.org/2000/svg">
<path d="M16.9792 32C14.9035 32 12.9596 31.6055 11.1474 30.8164C9.33402 30.0263 7.75648 28.959 6.41475 27.6148C5.07191 26.2716 4.00583 24.6924 3.21651 22.8771C2.42829 21.0629 2.03419 19.1169 2.03419 17.039C2.03419 14.961 2.42829 13.0144 3.21651 11.1992C4.00583 9.385 5.07191 7.80578 6.41475 6.46151C7.75648 5.11834 9.33402 4.05222 11.1474 3.26317C12.9596 2.473 14.9035 2.07792 16.9792 2.07792C19.0549 2.07792 20.9995 2.473 22.8128 3.26317C24.625 4.05222 26.2026 5.11834 27.5454 6.46151C28.8871 7.80578 29.9527 9.385 30.742 11.1992C31.5302 13.0144 31.9243 14.961 31.9243 17.039C31.9243 19.1169 31.5302 21.0629 30.742 22.8771C29.9527 24.6924 28.8871 26.2716 27.5454 27.6148C26.2026 28.959 24.625 30.0263 22.8128 30.8164C20.9995 31.6055 19.0549 32 16.9792 32ZM15.3187 10.3896V16.9974C15.3187 17.219 15.3602 17.4335 15.4432 17.6407C15.5263 17.8491 15.6508 18.0364 15.8169 18.2026L20.5079 22.8987C20.8124 23.2035 21.186 23.3558 21.6288 23.3558C22.0716 23.3558 22.4591 23.1896 22.7912 22.8571C23.0956 22.5524 23.2479 22.1645 23.2479 21.6935C23.2479 21.2225 23.0956 20.8346 22.7912 20.5299L18.6398 16.374V10.3481C18.6398 9.87706 18.4809 9.48918 18.1632 9.18441C17.8444 8.87965 17.4497 8.72727 16.9792 8.72727C16.5088 8.72727 16.1146 8.8863 15.7969 9.20436C15.4781 9.52353 15.3187 9.91861 15.3187 10.3896ZM2.73993 7.60519C2.43549 7.90996 2.06186 8.06234 1.61905 8.06234C1.17623 8.06234 0.788767 7.8961 0.456654 7.56364C0.152218 7.25887 0 6.871 0 6.4C0 5.929 0.152218 5.54113 0.456654 5.23636L5.23077 0.457143C5.53521 0.152381 5.90883 0 6.35165 0C6.79446 0 7.18193 0.166234 7.51404 0.498701C7.81848 0.803463 7.9707 1.19134 7.9707 1.66234C7.9707 2.13333 7.81848 2.52121 7.51404 2.82597L2.73993 7.60519ZM31.177 7.56364L26.4029 2.78442C26.0985 2.47965 25.9463 2.10563 25.9463 1.66234C25.9463 1.21905 26.1123 0.831169 26.4444 0.498701C26.7489 0.193939 27.1363 0.0415586 27.6068 0.0415586C28.0773 0.0415586 28.4648 0.193939 28.7692 0.498701L33.5433 5.27792C33.8478 5.58268 34 5.95671 34 6.4C34 6.84329 33.8339 7.23117 33.5018 7.56364C33.1974 7.8684 32.8099 8.02078 32.3394 8.02078C31.8689 8.02078 31.4815 7.8684 31.177 7.56364Z" fill="url(#paint0_linear_67_38)"/>
<defs>
<linearGradient id="paint0_linear_67_38" x1="1.84337" y1="4.85926" x2="33.2816" y2="23.5474" gradientUnits="userSpaceOnUse">
<stop stop-color="#E3C862"/>
<stop offset="0.206597" stop-color="#DBBB44"/>
<stop offset="0.472222" stop-color="#D4AF3A"/>
<stop offset="0.753213" stop-color="#B7912B"/>
<stop offset="1" stop-color="#A3781A"/>
</linearGradient>
</defs>
</svg>
