<svg width="29" height="30" viewBox="0 0 29 30" fill="none" xmlns="http://www.w3.org/2000/svg">
<path d="M27.3083 30C23.8444 30 20.4681 29.2011 17.1793 27.6033C13.8894 26.0067 10.976 23.8956 8.439 21.27C5.90096 18.6456 3.86022 15.6317 2.31678 12.2283C0.77226 8.82611 0 5.33333 0 1.75C0 1.25 0.161111 0.833333 0.483333 0.5C0.805556 0.166667 1.20833 0 1.69167 0H8.21667C8.59259 0 8.92824 0.125 9.22361 0.375C9.51898 0.625 9.69352 0.944444 9.74722 1.33333L10.7944 7.16667C10.8481 7.55556 10.8417 7.90944 10.7751 8.22833C10.7074 8.54833 10.5528 8.83333 10.3111 9.08333L6.44444 13.1667C7.57222 15.1667 8.98195 17.0417 10.6736 18.7917C12.3653 20.5417 14.2315 22.0556 16.2722 23.3333L20.0583 19.4167C20.3 19.1667 20.6158 18.9789 21.0057 18.8533C21.3945 18.7289 21.7769 18.6944 22.1528 18.75L27.7111 19.9167C28.087 20 28.3958 20.1872 28.6375 20.4783C28.8792 20.7706 29 21.1111 29 21.5V28.25C29 28.75 28.8389 29.1667 28.5167 29.5C28.1944 29.8333 27.7917 30 27.3083 30Z" fill="url(#paint0_linear_67_41)"/>
<defs>
<linearGradient id="paint0_linear_67_41" x1="1.57229" y1="4.55556" x2="29.6501" y2="19.7407" gradientUnits="userSpaceOnUse">
<stop stop-color="#E3C862"/>
<stop offset="0.206597" stop-color="#DBBB44"/>
<stop offset="0.472222" stop-color="#D4AF3A"/>
<stop offset="0.753213" stop-color="#B7912B"/>
<stop offset="1" stop-color="#A3781A"/>
</linearGradient>
</defs>
</svg>
