<svg width="44" height="43" viewBox="0 0 44 43" fill="none" xmlns="http://www.w3.org/2000/svg">
<path d="M43.2096 12.6191C43.1857 10.8239 42.8496 9.04661 42.2164 7.36665C41.6674 5.94962 40.8288 4.6627 39.7542 3.58812C38.6796 2.51353 37.3927 1.67492 35.9756 1.12586C34.3173 0.503334 32.5653 0.166725 30.7943 0.130362C28.5142 0.0284428 27.7913 0 22.0032 0C16.2151 0 15.4732 1.58936e-07 13.2097 0.130362C11.4395 0.166992 9.68833 0.503597 8.03071 1.12586C6.61346 1.67454 5.32634 2.51302 4.25171 3.58765C3.17708 4.66228 2.3386 5.9494 1.78992 7.36665C1.16615 9.02375 0.83027 10.7753 0.796795 12.5456C0.694875 14.8281 0.664062 15.551 0.664062 21.3391C0.664062 27.1272 0.664062 27.8667 0.796795 30.1326C0.832348 31.9056 1.16655 33.6548 1.78992 35.3163C2.33952 36.7332 3.17862 38.0198 4.25361 39.0939C5.3286 40.1681 6.61584 41.0062 8.03309 41.5548C9.68616 42.2023 11.4376 42.563 13.212 42.6214C15.4945 42.7233 16.2175 42.7541 22.0056 42.7541C27.7936 42.7541 28.5355 42.7541 30.7991 42.6214C32.57 42.5865 34.3221 42.2507 35.9804 41.6282C37.397 41.0785 38.6836 40.2397 39.7581 39.1652C40.8326 38.0907 41.6715 36.8041 42.2212 35.3874C42.8446 33.7283 43.1787 31.9791 43.2143 30.2038C43.3162 27.9236 43.347 27.2007 43.347 21.4102C43.3423 15.6221 43.3423 14.8874 43.2096 12.6191ZM21.989 32.2848C15.9354 32.2848 11.0314 27.3808 11.0314 21.3273C11.0314 15.2737 15.9354 10.3697 21.989 10.3697C24.8951 10.3697 27.6822 11.5242 29.7371 13.5791C31.792 15.6341 32.9465 18.4211 32.9465 21.3273C32.9465 24.2334 31.792 27.0205 29.7371 29.0754C27.6822 31.1304 24.8951 32.2848 21.989 32.2848ZM33.3826 12.5195C33.047 12.5198 32.7146 12.454 32.4045 12.3257C32.0943 12.1974 31.8125 12.0092 31.5752 11.7718C31.3379 11.5345 31.1497 11.2527 31.0214 10.9426C30.8931 10.6324 30.8272 10.3 30.8275 9.96442C30.8275 9.62903 30.8936 9.29693 31.0219 8.98708C31.1503 8.67722 31.3384 8.39568 31.5755 8.15853C31.8127 7.92137 32.0942 7.73325 32.4041 7.60491C32.7139 7.47656 33.0461 7.4105 33.3814 7.4105C33.7168 7.4105 34.0489 7.47656 34.3588 7.60491C34.6686 7.73325 34.9502 7.92137 35.1873 8.15853C35.4245 8.39568 35.6126 8.67722 35.7409 8.98708C35.8693 9.29693 35.9353 9.62903 35.9353 9.96442C35.9353 11.3771 34.7929 12.5195 33.3826 12.5195Z" fill="url(#paint0_linear_211_30)"/>
<path d="M21.985 28.4485C25.916 28.4485 29.1027 25.2617 29.1027 21.3307C29.1027 17.3996 25.916 14.2129 21.985 14.2129C18.0539 14.2129 14.8672 17.3996 14.8672 21.3307C14.8672 25.2617 18.0539 28.4485 21.985 28.4485Z" fill="url(#paint1_linear_211_30)"/>
<defs>
<linearGradient id="paint0_linear_211_30" x1="2.9782" y1="6.49229" x2="43.6903" y2="29.2317" gradientUnits="userSpaceOnUse">
<stop stop-color="#E3C862"/>
<stop offset="0.206597" stop-color="#DBBB44"/>
<stop offset="0.472222" stop-color="#D4AF3A"/>
<stop offset="0.753213" stop-color="#B7912B"/>
<stop offset="1" stop-color="#A3781A"/>
</linearGradient>
<linearGradient id="paint1_linear_211_30" x1="15.639" y1="16.3746" x2="29.2065" y2="23.9652" gradientUnits="userSpaceOnUse">
<stop stop-color="#E3C862"/>
<stop offset="0.206597" stop-color="#DBBB44"/>
<stop offset="0.472222" stop-color="#D4AF3A"/>
<stop offset="0.753213" stop-color="#B7912B"/>
<stop offset="1" stop-color="#A3781A"/>
</linearGradient>
</defs>
</svg>
