<svg width="693" height="693" viewBox="0 0 693 693" fill="none" xmlns="http://www.w3.org/2000/svg">
<rect width="693" height="693" fill="#1A1A1A"/>
<path fill-rule="evenodd" clip-rule="evenodd" d="M301.189 162.619C301.281 162.619 302.632 163.509 304.168 164.585C305.735 165.66 308.131 167.165 309.482 167.933C310.834 168.67 313.26 169.868 314.858 170.544C316.455 171.25 319.096 172.141 320.694 172.571C322.291 173.001 326.1 173.677 329.141 174.107C332.182 174.537 335.776 175.182 337.127 175.52C338.479 175.858 340.752 176.718 342.195 177.424C344.192 178.376 345.298 179.175 346.987 180.864C348.585 182.492 349.475 183.721 350.428 185.656C351.134 187.1 352.055 189.434 352.455 190.878C352.854 192.322 353.407 195.056 353.683 196.929C353.96 198.834 354.175 201.322 354.175 202.458C354.175 203.625 353.96 205.868 353.714 207.465C353.468 209.062 352.977 211.274 352.608 212.38C352.24 213.486 351.656 215.052 351.288 215.912C350.919 216.742 349.967 218.4 349.23 219.598C348.462 220.796 347.172 222.516 346.342 223.438C345.544 224.359 344.008 225.864 342.994 226.755C341.95 227.646 340.076 228.905 338.817 229.581C337.557 230.226 335.192 231.209 333.595 231.731C331.997 232.253 328.742 233.021 326.376 233.421C324.011 233.82 319.527 234.311 316.393 234.496C313.26 234.711 309.789 234.803 308.622 234.742C306.933 234.68 306.656 234.711 307.086 235.018C307.393 235.233 309.451 235.632 311.632 235.909C314.643 236.277 317.161 236.369 321.769 236.247C326.376 236.154 328.711 235.939 331.137 235.448C332.919 235.11 335.223 234.526 338.202 233.574L340.414 235.817C342.011 237.414 343.363 238.428 345.114 239.318C346.465 239.994 348.615 240.946 349.875 241.376C351.134 241.837 353.499 242.544 355.096 242.943C356.694 243.342 359.059 243.834 360.318 244.079C361.762 244.325 364.895 244.479 368.765 244.448C374.172 244.448 375.37 244.356 378.748 243.619C380.868 243.189 384.032 242.329 385.813 241.683C387.595 241.069 390.144 240.055 391.496 239.441C392.847 238.796 394.567 237.905 395.335 237.445C396.41 236.769 396.779 236.677 396.933 237.015C397.086 237.23 397.731 239.073 398.376 241.1C399.052 243.127 399.881 245.953 400.25 247.397C400.619 248.84 401.233 251.605 401.632 253.54C402.032 255.475 402.646 259.069 402.984 261.526C403.322 263.984 403.752 268.131 403.967 270.742C404.182 273.69 404.243 278.974 404.151 284.718C404.059 290.216 403.782 295.622 403.506 298.079C403.23 300.352 402.8 303.547 402.554 305.144C402.277 306.742 401.663 310.212 401.141 312.823C400.619 315.434 399.513 320.011 398.714 322.96C397.916 325.909 396.656 330.055 395.95 332.175C395.243 334.294 393.769 338.288 392.663 341.083C391.557 343.878 389.837 347.871 388.854 349.991C387.84 352.11 385.936 355.612 384.646 357.793C383.356 359.974 381.114 363.291 379.67 365.195C378.226 367.131 375.83 370.079 374.294 371.83C372.759 373.55 370.086 376.315 368.305 377.943C366.523 379.571 363.697 381.997 362.008 383.318C360.318 384.67 357.277 386.912 355.25 388.264C353.223 389.646 350.182 391.55 348.492 392.533C346.803 393.516 343.608 395.206 341.428 396.281C339.247 397.387 335.346 399.168 332.827 400.212C330.277 401.257 326.131 402.854 323.612 403.714C321.062 404.605 317.008 405.864 314.55 406.54C312.093 407.216 307.946 408.23 305.335 408.813C302.724 409.397 298.578 410.226 296.12 410.625C293.663 411.055 289.67 411.608 287.213 411.854C285.114 412.09 282.814 412.326 281.632 412.448C281.43 412.468 281.261 412.486 281.131 412.499C280.209 412.591 279.472 412.53 279.38 412.346C279.288 412.192 280.639 411.332 282.359 410.472C284.11 409.581 286.782 408.137 288.288 407.216C289.793 406.294 292.373 404.544 293.97 403.346C295.567 402.148 298.209 399.844 299.806 398.247C301.434 396.619 303.462 394.192 304.383 392.84C305.274 391.489 306.472 389.369 307.056 388.141C307.639 386.943 308.407 384.731 308.776 383.226C309.236 381.352 309.421 379.571 309.421 377.329C309.421 374.902 309.267 373.489 308.745 371.646C308.376 370.294 307.67 368.482 307.178 367.653C306.718 366.793 305.274 365.103 303.984 363.875C302.694 362.677 300.574 360.956 299.253 360.096C297.963 359.236 295.168 357.67 293.049 356.595C290.929 355.52 287.397 353.922 285.216 353.062C283.035 352.172 279.41 350.851 277.23 350.144C275.049 349.438 271.731 348.455 269.858 347.994C266.755 347.195 266.172 347.165 262.639 347.349C260.52 347.441 256.373 347.81 253.424 348.148C250.475 348.516 245.499 348.854 242.366 348.977C238.864 349.069 235.271 349.008 232.998 348.793C230.97 348.608 227.991 348.178 226.393 347.84C224.796 347.503 222.37 346.888 221.018 346.458C219.666 346.028 217.178 344.984 215.489 344.154C213.8 343.356 210.759 341.544 208.731 340.192C206.704 338.84 204.8 337.55 204.523 337.335C204.216 337.12 204.001 336.844 203.97 336.69C203.97 336.567 204.523 336.322 205.199 336.168C205.875 336.015 206.428 335.707 206.428 335.554C206.428 335.4 205.69 334.755 204.8 334.172C203.94 333.588 202.434 332.851 201.513 332.544C200.591 332.236 199.547 331.837 199.209 331.653C198.871 331.468 197.919 330.332 197.059 329.073C196.23 327.813 195.093 325.755 194.54 324.496C193.987 323.236 193.373 321.301 193.189 320.195C192.974 319.028 192.912 317.677 193.066 316.97C193.189 316.294 193.895 314.574 194.632 313.131C195.37 311.687 198.195 307.264 200.868 303.301C203.571 299.339 207.779 293.103 210.206 289.479C212.663 285.854 215.366 281.646 216.226 280.11C217.086 278.574 218.1 276.578 218.438 275.656C218.806 274.735 219.175 273.076 219.236 271.97C219.359 270.742 219.206 269.021 218.929 267.516C218.653 266.165 217.946 263.892 217.332 262.448C216.748 261.004 215.213 258.301 213.953 256.458C211.772 253.233 211.68 252.987 211.649 251.298C211.649 250.1 211.926 248.779 212.571 246.997C213.093 245.615 213.8 244.018 214.721 242.482L212.663 240.854C211.527 239.994 209.622 238.397 208.424 237.322C207.257 236.247 205.383 234.373 204.308 233.175C203.233 231.946 201.666 229.919 200.806 228.66C199.946 227.4 198.718 225.25 198.103 223.899C197.458 222.547 196.721 220.55 196.445 219.445C196.168 218.339 195.861 216.342 195.769 214.991C195.677 213.608 195.738 211.612 195.953 210.383C196.168 209.185 196.752 207.189 197.243 205.929C197.735 204.67 198.656 202.796 199.332 201.782C199.977 200.769 201.789 198.557 203.356 196.868C204.892 195.178 206.98 192.813 207.963 191.646C208.946 190.448 210.666 188.114 211.803 186.424C212.939 184.735 214.66 181.694 215.643 179.666C216.626 177.639 217.67 175.182 218.008 174.23C218.315 173.247 218.653 172.448 218.776 172.448C218.929 172.448 219.144 172.97 219.298 173.585C219.482 174.23 219.759 175.643 219.974 176.748C220.189 177.854 220.342 180.465 220.342 182.585C220.342 185.687 220.189 186.977 219.574 189.342C219.144 190.939 217.885 194.257 216.779 196.714C215.704 199.172 214.567 201.844 214.26 202.704C213.953 203.533 213.646 205.346 213.554 206.697C213.431 208.694 213.523 209.4 214.015 210.537C214.352 211.305 214.967 212.349 215.397 212.84C215.827 213.332 216.963 214.315 217.977 214.96C218.96 215.636 220.68 216.557 221.786 216.987C222.892 217.448 224.95 218.124 226.393 218.462C227.837 218.83 229.496 219.199 231.155 219.475L231.585 217.847C231.83 216.957 232.598 215.39 233.274 214.407C233.98 213.363 235.271 212.073 236.223 211.397C237.144 210.752 238.803 209.922 239.909 209.585C241.629 209.032 242.919 208.939 249.585 208.847C255.728 208.786 258.431 208.602 263.1 207.957C266.294 207.496 270.81 206.943 273.083 206.666C276.093 206.298 278.704 206.206 282.605 206.329C285.861 206.421 288.871 206.697 290.284 207.004C291.544 207.281 293.755 207.926 295.199 208.417C296.643 208.909 298.547 209.769 299.468 210.291C300.359 210.844 301.742 211.919 303.953 214.008L306.103 213.823C307.301 213.731 309.697 213.301 311.479 212.84C313.26 212.38 315.718 211.612 316.916 211.12C318.144 210.629 320.172 209.738 321.37 209.124C322.598 208.509 324.748 207.25 326.131 206.359C327.544 205.438 329.294 204.086 330.062 203.318C330.83 202.55 331.813 201.137 332.243 200.154C332.919 198.711 333.042 198.096 332.919 196.714C332.827 195.67 332.428 194.38 331.875 193.366C331.383 192.475 330.216 190.878 329.294 189.864C328.373 188.851 326.499 187.131 325.148 186.056C323.796 184.98 320.694 182.707 318.236 181.049C315.779 179.359 312.615 176.994 311.172 175.735C309.728 174.475 307.701 172.448 306.625 171.189C305.55 169.929 303.861 167.718 302.847 166.213C301.864 164.738 301.035 163.325 301.035 163.079C301.035 162.834 301.096 162.619 301.189 162.619ZM342.288 247.059C340.383 246.567 338.694 246.168 338.51 246.168C338.356 246.168 338.202 246.26 338.233 246.383C338.233 246.537 339.277 246.997 340.598 247.458C341.919 247.919 344.223 248.902 345.728 249.639C347.264 250.376 349.537 251.666 350.796 252.465C352.086 253.294 354.237 255.076 355.588 256.427C356.94 257.81 358.629 259.868 359.335 261.066C360.042 262.264 360.902 264.107 361.271 265.212C361.609 266.318 361.946 267.977 361.977 268.898L362.008 270.557C358.445 271.939 356.11 272.677 354.482 273.076C352.885 273.506 349.998 273.967 348.032 274.151C345.513 274.397 343.547 274.397 341.12 274.151C339.277 273.936 336.636 273.506 335.284 273.168C333.933 272.799 331.936 272.124 330.83 271.632C329.755 271.11 327.667 269.912 326.223 268.929C324.81 267.946 322.905 266.779 322.015 266.318C321.124 265.888 319.465 265.305 318.329 265.028C316.885 264.69 315.472 264.598 313.629 264.69C312.216 264.782 310.373 265.059 309.574 265.335C308.776 265.612 308.1 265.95 308.1 266.134C308.12 266.339 308.51 266.339 309.267 266.134C309.912 265.98 311.448 265.827 312.708 265.827C313.998 265.827 315.779 266.042 316.701 266.288C317.653 266.533 319.219 267.148 320.233 267.67C321.247 268.161 323.397 269.605 324.994 270.895C326.622 272.154 328.895 273.66 330.062 274.243C331.26 274.827 333.134 275.595 334.209 275.933C335.315 276.301 337.465 276.793 338.97 277.038C340.506 277.284 343.332 277.499 345.267 277.499C347.233 277.499 350.12 277.284 351.718 277.038C353.346 276.793 355.68 276.301 356.94 275.963C358.23 275.595 360.595 274.673 362.254 273.875C364.649 272.707 365.295 272.277 365.417 271.663C365.51 271.233 365.417 269.943 365.264 268.745C365.079 267.547 364.711 265.919 364.434 265.059C364.158 264.23 363.544 262.755 363.083 261.834C362.622 260.912 361.578 259.253 360.748 258.178C359.919 257.073 358.291 255.383 357.093 254.369C355.926 253.387 354.052 252.035 352.946 251.359C351.871 250.714 349.783 249.67 348.339 249.055C346.926 248.472 344.192 247.55 342.288 247.059ZM293.909 253.878C292.864 253.571 291.237 253.233 290.284 253.141C289.363 253.049 288.042 253.079 287.366 253.233C286.69 253.356 285.8 253.632 285.37 253.847C284.97 254.062 283.527 255.23 282.206 256.427C280.885 257.625 278.52 260.021 276.984 261.772C275.448 263.523 273.359 266.073 272.376 267.455C271.394 268.837 269.827 271.264 268.905 272.799C268.015 274.366 267.308 275.748 267.339 275.84C267.37 275.933 268.168 275.84 269.09 275.656C270.042 275.441 272.438 274.612 274.465 273.782C274.721 273.682 274.997 273.573 275.289 273.457L275.975 273.186C277.9 272.425 280.259 271.493 281.837 270.895C283.865 270.096 286.291 269.021 287.213 268.438C288.165 267.885 289.455 266.84 290.131 266.103C290.806 265.366 291.574 264.199 291.882 263.523C292.158 262.847 292.711 261.127 293.08 259.683C293.417 258.24 293.97 256.704 294.247 256.212C294.523 255.752 294.984 255.291 295.291 255.23C295.598 255.137 295.813 254.953 295.813 254.769C295.813 254.584 294.953 254.216 293.909 253.878ZM245.653 325.11C245.714 325.11 246.144 325.294 246.605 325.54C247.066 325.755 247.987 326.554 248.663 327.291C249.339 328.028 250.199 329.41 250.629 330.332C251.028 331.253 251.458 332.513 251.643 334.171L249.093 334.079C247.097 333.987 245.776 334.171 243.134 334.817C240.339 335.523 239.325 335.615 237.144 335.492C235.731 335.4 234.257 335.185 233.919 335.001C233.428 334.755 233.643 334.663 235.148 334.509C236.161 334.417 237.482 334.141 238.066 333.895C238.68 333.68 239.632 332.943 240.247 332.298C240.83 331.622 241.875 330.055 242.581 328.796C243.257 327.537 244.209 326.185 244.701 325.786C245.161 325.417 245.591 325.11 245.653 325.11Z" fill="url(#paint0_linear_67_2)"/>
<path d="M471.82 160.383C456.4 136.148 443.714 116.182 443.591 116.028C443.469 115.875 443.1 116.366 442.762 117.103C442.394 117.84 435.144 134.612 426.667 154.393C418.189 174.144 408.759 196.107 405.748 203.141L405.461 203.815C402.582 210.573 400.25 216.045 400.25 216.134C400.25 216.226 400.434 216.288 400.619 216.288C400.834 216.288 405.441 214.721 410.847 212.755C416.254 210.82 420.769 209.223 420.892 209.223C421.045 209.223 421.26 209.745 421.445 210.359C421.598 211.004 422.151 213.584 422.673 216.134L424.363 225.963C424.793 228.851 425.346 233.243 425.591 235.793C425.837 238.311 426.206 243.38 426.39 247.004C426.605 250.905 426.667 256.741 426.544 261.287C426.452 265.496 426.144 271.393 425.899 274.342C425.622 277.291 425.223 281.376 424.946 283.404C424.701 285.431 424.148 289.086 423.718 291.543C423.288 294.001 422.551 297.871 422.028 300.144C421.537 302.417 420.493 306.564 419.694 309.359C418.926 312.154 417.574 316.578 416.684 319.189C415.762 321.799 414.103 326.161 412.998 328.864C411.861 331.567 409.772 336.206 408.298 339.154C406.824 342.103 404.305 346.711 402.708 349.383C401.11 352.055 398.499 355.987 396.964 358.137L391.588 365.11C390.175 366.799 386.981 370.301 384.431 372.912C381.912 375.492 378.196 379.025 376.168 380.745C374.172 382.434 371.192 384.861 369.564 386.12C367.936 387.349 364.25 389.929 361.394 391.834C358.506 393.738 354.789 396.103 353.1 397.055C351.411 398.038 347.817 399.973 345.114 401.356C342.411 402.738 338.663 404.52 336.82 405.318L328.987 408.574C326.53 409.557 322.445 411.031 319.926 411.892C317.376 412.752 313.383 414.011 311.018 414.687C308.653 415.363 305.336 416.253 303.646 416.683C301.957 417.113 298.977 417.789 297.042 418.219C295.107 418.619 291.513 419.325 289.056 419.724C286.598 420.154 283.803 420.584 282.82 420.677C281.868 420.769 281.069 421.014 281.069 421.168C281.069 421.352 283.312 421.475 287.121 421.475C290.469 421.475 295.076 421.322 297.349 421.168C299.622 420.984 303.708 420.615 306.411 420.369C309.114 420.124 313.752 419.571 316.701 419.141C319.65 418.741 324.564 417.912 327.605 417.328C330.646 416.745 335.837 415.578 339.124 414.748C342.411 413.919 347.54 412.444 350.489 411.462C353.438 410.509 357.923 408.912 360.472 407.96C362.991 406.977 366.462 405.564 368.151 404.796C369.841 404.059 373.158 402.462 375.523 401.264C377.888 400.096 381.697 398.038 383.97 396.748C386.243 395.427 390.052 393.093 392.417 391.526C394.783 389.96 398.376 387.441 400.404 385.905C402.431 384.4 405.472 382.004 407.161 380.591C408.851 379.178 412.107 376.26 414.38 374.141C416.653 372.021 420.247 368.427 422.336 366.154C424.424 363.881 427.25 360.718 428.602 359.12C429.923 357.523 432.503 354.267 434.254 351.902C436.035 349.537 439.045 345.267 440.95 342.38C442.854 339.492 445.772 334.823 447.4 331.936C449.059 329.049 451.67 324.165 453.237 321.032C454.803 317.898 456.861 313.537 457.844 311.356C458.827 309.175 460.516 305.09 461.591 302.294C462.697 299.499 464.295 295.291 465.124 292.926C465.953 290.561 467.305 286.414 468.134 283.711C468.933 281.008 470.254 276.462 471.022 273.574C471.789 270.687 472.987 265.864 473.663 262.823C474.339 259.782 475.383 254.653 475.998 251.458C476.581 248.264 477.472 242.796 477.964 239.325C478.455 235.854 479.131 230.202 479.469 226.731L480.421 214.752C480.574 211.619 480.728 208.424 480.728 207.625V206.151C488.469 205.905 492.83 205.721 495.411 205.598C499.373 205.414 500.11 205.322 499.987 204.922C499.926 204.677 487.24 184.619 471.82 160.383Z" fill="url(#paint1_linear_67_2)"/>
<path d="M181.039 526.627C180.452 530.524 180.158 534.928 180.158 539.84L179.758 540.24L150.649 540C145.791 540 142.361 540.08 140.359 540.24L139.959 539.84V538.719L140.159 538.238C142.134 536.984 143.202 536.196 143.362 535.876C143.603 535.396 143.749 533.62 143.803 530.551L143.923 521.582V501.282C143.923 494.929 143.749 490.792 143.402 488.87C143.269 488.096 142.815 487.602 142.041 487.389C141.641 487.282 140.079 487.148 137.356 486.988L136.956 486.588V483.865L137.356 483.505C140.106 483.665 144.136 483.745 149.448 483.745C154.947 483.745 159.124 483.665 161.98 483.505L162.381 483.865V486.628L161.98 486.988C159.258 487.148 157.696 487.282 157.296 487.389C156.522 487.602 156.068 488.096 155.935 488.87C155.588 490.792 155.414 494.929 155.414 501.282V525.226C155.414 528.722 155.481 532.112 155.614 535.396H161.06C168.854 535.396 173.632 535.089 175.394 534.475C175.687 534.368 175.901 534.221 176.034 534.034C176.301 533.66 176.555 532.86 176.795 531.632L177.756 526.667L178.156 526.227H180.599L181.039 526.627ZM248.665 510.411C248.665 520.261 245.796 527.988 240.057 533.594C234.478 539.039 226.857 541.762 217.194 541.762C208.065 541.762 200.898 539.199 195.693 534.074C190.488 528.923 187.886 521.769 187.886 512.613C187.886 499.774 192.784 490.885 202.58 485.947C207.038 483.705 212.523 482.584 219.036 482.584C228.352 482.584 235.599 485.026 240.777 489.911C246.036 494.876 248.665 501.709 248.665 510.411ZM236.333 512.493C236.333 504.752 234.771 498.613 231.648 494.075C228.552 489.511 224.001 487.229 217.995 487.229C210.067 487.229 204.809 490.792 202.22 497.919C200.885 501.576 200.218 505.673 200.218 510.211C200.218 518.459 201.739 524.972 204.782 529.75C207.932 534.688 212.643 537.157 218.916 537.157C226.523 537.157 231.635 533.407 234.251 525.906C235.639 521.929 236.333 517.458 236.333 512.493ZM318.093 486.588L317.652 486.988C314.93 487.148 313.368 487.282 312.968 487.389C312.194 487.602 311.74 488.096 311.606 488.87C311.259 490.792 311.086 494.929 311.086 501.282V517.538C311.086 529.523 311.259 537.331 311.606 540.961L311.086 541.321C308.07 540.814 305.787 540.454 304.239 540.24C297.086 532.206 284.874 517.551 267.604 496.277V522.463C267.604 528.816 267.777 532.953 268.124 534.875C268.257 535.649 268.711 536.143 269.485 536.356C269.886 536.463 271.447 536.597 274.17 536.757L274.57 537.157V539.88L274.17 540.24C271.1 540.08 268.244 540 265.602 540C262.532 540 259.449 540.08 256.353 540.24L255.952 539.88V537.157L256.353 536.757C259.075 536.597 260.637 536.463 261.037 536.356C261.811 536.143 262.265 535.649 262.398 534.875C262.745 532.953 262.919 528.816 262.919 522.463V501.282C262.919 494.929 262.745 490.792 262.398 488.87C262.265 488.096 261.811 487.602 261.037 487.389C260.637 487.282 259.075 487.148 256.353 486.988L255.952 486.588V483.865L256.353 483.505C258.888 483.665 261.304 483.745 263.6 483.745C267.203 483.745 270.193 483.665 272.568 483.505C282.178 496.317 293.469 510.051 306.441 524.705V501.282C306.441 494.929 306.268 490.792 305.921 488.87C305.787 488.096 305.334 487.602 304.56 487.389C304.159 487.282 302.598 487.148 299.875 486.988L299.475 486.588V483.865L299.875 483.505C302.865 483.665 305.707 483.745 308.403 483.745C311.847 483.745 314.943 483.665 317.692 483.505L318.093 483.865V486.588ZM385.118 519.78L384.718 520.221C383.063 520.621 382.102 521.182 381.835 521.902C381.568 522.596 381.435 525.292 381.435 529.99C381.435 532.259 381.541 534.501 381.755 536.717C372.84 540.08 364.752 541.762 357.491 541.762C347.935 541.762 340.194 539.092 334.269 533.754C328.369 528.389 325.42 521.088 325.42 511.853C325.42 499.814 330.638 491.232 341.075 486.107C345.853 483.758 351.926 482.584 359.293 482.584C363.564 482.584 367.888 483.051 372.266 483.985C375.869 484.759 378.712 485.64 380.794 486.628L381.154 487.349C380.46 489.698 379.886 493.782 379.433 499.601L378.992 500.001H376.59L376.189 499.601C376.189 499.093 376.136 498.052 376.029 496.478C375.923 494.876 375.789 493.755 375.629 493.114C374.454 491.513 372.452 490.151 369.623 489.03C366.58 487.856 363.297 487.269 359.773 487.269C350.324 487.269 343.798 491.086 340.194 498.72C338.539 502.243 337.712 506.327 337.712 510.972C337.712 518.392 339.687 524.545 343.638 529.43C347.748 534.501 353.1 537.037 359.693 537.037C363.19 537.037 366.567 536.29 369.823 534.795C370.01 532.926 370.104 530.364 370.104 527.107C370.104 524.465 370.01 522.863 369.823 522.303C369.663 521.876 369.156 521.569 368.302 521.382C367.581 521.222 365.326 521.021 361.535 520.781L361.095 520.381V517.858L361.535 517.458C365.406 517.565 369.463 517.605 373.707 517.578C376.163 517.551 379.833 517.511 384.718 517.458L385.118 517.858V519.78ZM417.71 539.84L417.35 540.24C414.68 540.08 410.556 540 404.978 540C399.425 540 395.315 540.08 392.646 540.24L392.285 539.84V537.157L392.686 536.757C395.408 536.597 396.97 536.463 397.37 536.356C398.144 536.143 398.598 535.649 398.731 534.875C399.078 532.953 399.252 528.816 399.252 522.463V501.282C399.252 494.929 399.078 490.792 398.731 488.87C398.598 488.096 398.144 487.602 397.37 487.389C396.97 487.282 395.408 487.148 392.686 486.988L392.285 486.588V483.865L392.686 483.505C395.248 483.665 399.359 483.745 405.018 483.745C410.65 483.745 414.747 483.665 417.31 483.505L417.71 483.865V486.588L417.31 486.988C414.587 487.148 413.025 487.282 412.625 487.389C411.851 487.602 411.397 488.096 411.264 488.87C410.917 490.792 410.743 494.929 410.743 501.282V522.463C410.743 528.816 410.917 532.953 411.264 534.875C411.397 535.649 411.851 536.143 412.625 536.356C413.025 536.463 414.587 536.597 417.31 536.757L417.71 537.157V539.84ZM486.657 486.588L486.217 486.988C483.494 487.148 481.933 487.282 481.532 487.389C480.758 487.602 480.304 488.096 480.171 488.87C479.824 490.792 479.65 494.929 479.65 501.282V517.538C479.65 529.523 479.824 537.331 480.171 540.961L479.65 541.321C476.634 540.814 474.352 540.454 472.804 540.24C465.65 532.206 453.438 517.551 436.168 496.277V522.463C436.168 528.816 436.341 532.953 436.688 534.875C436.822 535.649 437.276 536.143 438.05 536.356C438.45 536.463 440.012 536.597 442.734 536.757L443.135 537.157V539.88L442.734 540.24C439.665 540.08 436.809 540 434.166 540C431.096 540 428.013 540.08 424.917 540.24L424.517 539.88V537.157L424.917 536.757C427.64 536.597 429.201 536.463 429.602 536.356C430.376 536.143 430.829 535.649 430.963 534.875C431.31 532.953 431.483 528.816 431.483 522.463V501.282C431.483 494.929 431.31 490.792 430.963 488.87C430.829 488.096 430.376 487.602 429.602 487.389C429.201 487.282 427.64 487.148 424.917 486.988L424.517 486.588V483.865L424.917 483.505C427.453 483.665 429.868 483.745 432.164 483.745C435.768 483.745 438.757 483.665 441.133 483.505C450.742 496.317 462.033 510.051 475.006 524.705V501.282C475.006 494.929 474.832 490.792 474.485 488.87C474.352 488.096 473.898 487.602 473.124 487.389C472.724 487.282 471.162 487.148 468.439 486.988L468.039 486.588V483.865L468.439 483.505C471.429 483.665 474.272 483.745 476.968 483.745C480.411 483.745 483.507 483.665 486.257 483.505L486.657 483.865V486.588ZM553.683 519.78L553.282 520.221C551.627 520.621 550.666 521.182 550.399 521.902C550.132 522.596 549.999 525.292 549.999 529.99C549.999 532.259 550.106 534.501 550.319 536.717C541.404 540.08 533.316 541.762 526.056 541.762C516.5 541.762 508.759 539.092 502.833 533.754C496.934 528.389 493.984 521.088 493.984 511.853C493.984 499.814 499.203 491.232 509.64 486.107C514.418 483.758 520.49 482.584 527.857 482.584C532.128 482.584 536.452 483.051 540.83 483.985C544.434 484.759 547.276 485.64 549.358 486.628L549.719 487.349C549.025 489.698 548.451 493.782 547.997 499.601L547.557 500.001H545.154L544.754 499.601C544.754 499.093 544.701 498.052 544.594 496.478C544.487 494.876 544.354 493.755 544.193 493.114C543.019 491.513 541.017 490.151 538.188 489.03C535.145 487.856 531.861 487.269 528.338 487.269C518.889 487.269 512.362 491.086 508.759 498.72C507.104 502.243 506.276 506.327 506.276 510.972C506.276 518.392 508.252 524.545 512.202 529.43C516.313 534.501 521.665 537.037 528.258 537.037C531.755 537.037 535.131 536.29 538.388 534.795C538.575 532.926 538.668 530.364 538.668 527.107C538.668 524.465 538.575 522.863 538.388 522.303C538.228 521.876 537.72 521.569 536.866 521.382C536.146 521.222 533.89 521.021 530.1 520.781L529.659 520.381V517.858L530.1 517.458C533.97 517.565 538.027 517.605 542.271 517.578C544.727 517.551 548.397 517.511 553.282 517.458L553.683 517.858V519.78Z" fill="url(#paint2_linear_67_2)"/>
<defs>
<linearGradient id="paint0_linear_67_2" x1="355.004" y1="337.485" x2="183.374" y2="238.187" gradientUnits="userSpaceOnUse">
<stop stop-color="#BC8F23"/>
<stop offset="0.284722" stop-color="#EFCA54"/>
<stop offset="0.60243" stop-color="#CFA537"/>
<stop offset="1" stop-color="#F1C95C"/>
</linearGradient>
<linearGradient id="paint1_linear_67_2" x1="250.967" y1="384.308" x2="418.834" y2="155.315" gradientUnits="userSpaceOnUse">
<stop stop-color="#6C511D" stop-opacity="0.72"/>
<stop offset="0.746925" stop-color="#EFBC38" stop-opacity="0.91"/>
</linearGradient>
<linearGradient id="paint2_linear_67_2" x1="156.988" y1="482.856" x2="252.296" y2="686.536" gradientUnits="userSpaceOnUse">
<stop stop-color="#E3C862"/>
<stop offset="0.16493" stop-color="#DBBB44"/>
<stop offset="0.310764" stop-color="#D4AF3A"/>
<stop offset="0.430555" stop-color="#B7912B"/>
<stop offset="0.565972" stop-color="#B38725"/>
<stop offset="0.680555" stop-color="#B7912B"/>
<stop offset="0.91493" stop-color="#DBBB44"/>
</linearGradient>
</defs>
</svg>
