<svg width="48" height="40" viewBox="0 0 48 40" fill="none" xmlns="http://www.w3.org/2000/svg">
<path d="M3.29927 17.2199C16.1866 11.5755 24.7782 7.85403 29.0739 6.05612C41.3535 0.922132 43.902 0.0304713 45.5664 0.000263209C45.9324 -0.00563953 46.7474 0.0853313 47.2792 0.51762C47.7212 0.8822 47.8455 1.37525 47.9077 1.72143C47.9629 2.06726 48.0389 2.85545 47.9767 3.47072C47.3137 10.4985 44.4338 27.5525 42.9696 35.424C42.3549 38.7545 41.1325 39.8712 39.9515 39.9802C37.3823 40.2177 35.4347 38.2746 32.9484 36.6364C29.0601 34.0719 26.8639 32.4761 23.0861 29.974C18.7212 27.0824 21.5529 25.4928 24.0392 22.8956C24.6884 22.2157 36.001 11.8721 36.2151 10.9339C36.2428 10.8165 36.2704 10.379 36.0079 10.1485C35.7524 9.9172 35.3726 9.99637 35.0963 10.0589C34.7026 10.1478 28.4938 14.2783 16.449 22.4498C14.6879 23.6678 13.0925 24.2615 11.656 24.2303C10.0813 24.1963 7.04254 23.3331 4.78415 22.5956C2.02159 21.6907 -0.181552 21.2123 0.0118266 19.6755C0.108516 18.8755 1.20663 18.0567 3.29927 17.2199Z" fill="url(#paint0_linear_211_29)"/>
<defs>
<linearGradient id="paint0_linear_211_29" x1="2.60241" y1="6.07407" x2="44.0068" y2="33.8716" gradientUnits="userSpaceOnUse">
<stop stop-color="#E3C862"/>
<stop offset="0.206597" stop-color="#DBBB44"/>
<stop offset="0.472222" stop-color="#D4AF3A"/>
<stop offset="0.753213" stop-color="#B7912B"/>
<stop offset="1" stop-color="#A3781A"/>
</linearGradient>
</defs>
</svg>
